<svg xmlns="http://www.w3.org/2000/svg" width="256" height="256" viewBox="0 0 100 100"><rect width="100" height="100" rx="50" fill="#260bf3"></rect><path d="M36.56 50.04L36.56 50.04Q36.56 42.28 32.76 38.48Q28.96 34.68 22.88 34.68L22.88 34.68Q21.44 34.68 20.16 34.76Q18.88 34.84 17.60 35.08L17.60 35.08L17.60 64.84Q18.64 65.08 20.12 65.20Q21.60 65.32 22.96 65.32L22.96 65.32Q29.20 65.32 32.88 61.52Q36.56 57.72 36.56 50.04ZM49.52 49.88L49.52 49.88Q49.52 56.28 47.60 61.08Q45.68 65.88 42.20 69.08Q38.72 72.28 33.80 73.88Q28.88 75.48 22.88 75.48L22.88 75.48Q21.52 75.48 19.80 75.40Q18.08 75.32 16.28 75.12Q14.48 74.92 12.64 74.56Q10.80 74.20 9.28 73.64L9.28 73.64Q5.12 72.12 5.12 68.20L5.12 68.20L5.12 30.12Q5.12 28.52 5.96 27.64Q6.80 26.76 8.40 26.20L8.40 26.20Q11.68 25.16 15.36 24.84Q19.04 24.52 22.08 24.52L22.08 24.52Q28.24 24.52 33.28 26.04Q38.32 27.56 41.92 30.72Q45.52 33.88 47.52 38.64Q49.52 43.40 49.52 49.88ZM90.40 35.88L80.64 35.88L80.64 74.20Q79.76 74.44 78.16 74.64Q76.56 74.84 74.80 74.84L74.80 74.84Q71.04 74.84 69.52 73.56Q68 72.28 68 68.92L68 68.92L68 35.88L55.44 35.88Q54.96 35.08 54.52 33.80Q54.08 32.52 54.08 31L54.08 31Q54.08 28.28 55.28 27.04Q56.48 25.80 58.56 25.80L58.56 25.80L93.52 25.80Q94.08 26.60 94.48 27.88Q94.88 29.16 94.88 30.68L94.88 30.68Q94.88 33.32 93.68 34.60Q92.48 35.88 90.40 35.88L90.40 35.88Z" fill="#e8e8dd"></path></svg>